<svg xmlns="http://www.w3.org/2000/svg" viewBox="0 0 512 512" aria-hidden="true" focusable="false">
  <g transform="translate(0 448) scale(1 -1)">
    <path fill="#c1413d" d="M256 440c137 0 248 -111 248 -248s-111 -248 -248 -248s-248 111 -248 248s111 248 248 248zM348.49 127c2.19531 2.73926 3.52637 6.21973 3.52637 10c0 5.05566 -2.35059 9.56738 -6.0166 12.5l-58 42.5v144c0 8.83105 -7.16895 16 -16 16h-32c-8.83105 0 -16 -7.16895 -16 -16v-155.55c0 -12.6338 5.8418 -23.8975 15 -31.2305l67 -49.7197v0c2.7373 -2.19043 6.21387 -3.51758 9.98926 -3.51758c5.05566 0 9.56738 2.35059 12.501 6.01758l20 25v0z" />
  </g>
</svg>
