<svg xmlns="http://www.w3.org/2000/svg" viewBox="0 0 512 512" aria-hidden="true" focusable="false">
  <g transform="translate(0 448) scale(1 -1)">
    <path fill="#c1413d" d="M493.4 423.4c10.8994 -2.5 18.5996 -12.2002 18.5996 -23.4004c0 -256.5 -207.9 -464 -464 -464c-11.2998 0 -20.9004 7.7998 -23.4004 18.5996l-24 104c-2.59961 11.3008 3.30078 22.9004 14 27.6006l112 48c9.80078 4.2002 21.2002 1.39941 28 -6.90039l49.6006 -60.5996c78.2998 36.7002 141.2 100.5 177.2 177.2l-60.6006 49.5996c-8.2998 6.7002 -11.0996 18.2002 -6.89941 28l48 112c4.59961 10.5996 16.1992 16.5 27.5 13.9004z" />
  </g>
</svg>
