<svg xmlns="http://www.w3.org/2000/svg" xmlns:xlink="http://www.w3.org/1999/xlink" width="108" zoomAndPan="magnify" viewBox="0 0 81 80.999996" height="108" preserveAspectRatio="xMidYMid meet" version="1.0"><defs><clipPath id="0ca8267967"><path d="M 8.6875 8.6875 L 72.4375 8.6875 L 72.4375 72.4375 L 8.6875 72.4375 Z M 8.6875 8.6875 " clip-rule="nonzero"/></clipPath></defs><path fill="#ffc04d" d="M 30.601562 31.8125 C 32.265625 30.851562 34.054688 30.265625 35.96875 30.054688 L 36.148438 30.054688 C 36.257812 30.058594 36.363281 30.042969 36.464844 30.007812 C 36.796875 30.019531 37.128906 30.003906 37.457031 29.960938 L 40.296875 29.828125 C 41.136719 29.796875 42.21875 29.78125 43.542969 29.78125 C 44.339844 29.761719 45.136719 29.792969 45.933594 29.875 C 48.363281 30.089844 50.707031 30.660156 52.964844 31.585938 C 53.324219 31.707031 53.824219 31.300781 54.453125 30.367188 C 54.976562 29.71875 55.289062 28.984375 55.398438 28.160156 C 55.398438 27.167969 54.84375 26.070312 53.730469 24.867188 C 52.875 23.90625 51.851562 23.183594 50.660156 22.703125 L 50.707031 23.019531 L 50.707031 23.335938 C 50.710938 23.59375 50.652344 23.832031 50.527344 24.058594 C 50.195312 24.566406 49.535156 24.78125 48.542969 24.6875 C 46.742188 24.566406 44.730469 24.503906 42.507812 24.503906 L 40.703125 24.503906 C 37.398438 24.535156 34.269531 24.640625 31.324219 24.820312 C 30.332031 24.851562 29.730469 24.566406 29.519531 23.964844 C 28.664062 24.441406 27.941406 25.074219 27.355469 25.859375 C 26.753906 26.699219 26.511719 27.253906 26.632812 27.527344 C 27.773438 30.652344 29.097656 32.082031 30.601562 31.8125 " fill-opacity="1" fill-rule="nonzero"/><path fill="#ffc04d" d="M 55.402344 33.210938 L 55.492188 33.839844 C 55.460938 34.09375 55.382812 34.335938 55.269531 34.5625 C 55.078125 34.796875 54.84375 34.972656 54.5625 35.082031 C 54.28125 35.195312 53.992188 35.230469 53.691406 35.191406 C 53.492188 35.195312 53.296875 35.183594 53.101562 35.148438 C 50.308594 34.878906 47.074219 34.742188 43.40625 34.742188 C 41.691406 34.742188 40.386719 34.757812 39.484375 34.789062 C 34.222656 34.878906 29.894531 35.117188 26.496094 35.507812 L 26.046875 35.554688 C 25.722656 35.585938 25.417969 35.515625 25.132812 35.351562 C 24.851562 35.183594 24.644531 34.953125 24.511719 34.652344 C 23.574219 35.121094 22.777344 35.765625 22.128906 36.59375 C 21.46875 37.433594 21.195312 38.019531 21.316406 38.351562 C 21.816406 39.621094 22.566406 40.71875 23.570312 41.640625 C 24.53125 42.574219 25.40625 42.964844 26.1875 42.8125 C 28.199219 41.863281 30.292969 41.160156 32.472656 40.703125 C 30.703125 44.027344 28.425781 46.953125 25.640625 49.488281 C 25.640625 49.488281 24.789062 52.972656 26.429688 54.449219 C 27.550781 55.457031 27.480469 54.339844 29.984375 54.226562 C 32.484375 54.117188 37.929688 54.027344 41.269531 54.027344 C 45.078125 54.027344 49.660156 54.234375 52.128906 54.359375 C 55.398438 54.527344 55 55.320312 56.117188 54.648438 C 58.289062 53.34375 56.992188 49.488281 56.992188 49.488281 C 54.09375 46.839844 51.714844 43.792969 49.851562 40.339844 C 51.386719 40.480469 52.894531 40.777344 54.371094 41.234375 L 55.855469 41.777344 L 56.625 42.09375 L 57.484375 42.40625 C 57.84375 42.527344 58.324219 42.089844 58.925781 41.101562 C 59.15625 40.707031 59.367188 40.300781 59.554688 39.882812 L 59.824219 39.027344 C 59.941406 38.035156 59.476562 36.847656 58.425781 35.464844 C 57.644531 34.414062 56.636719 33.664062 55.40625 33.210938 M 41.390625 48.890625 C 38.09375 48.890625 35.222656 48.964844 32.855469 49.054688 C 36.699219 45.207031 38.511719 41.855469 39.308594 39.964844 C 39.945312 39.945312 40.605469 39.929688 41.3125 39.929688 C 41.957031 39.929688 42.539062 39.933594 43.085938 39.941406 C 43.878906 41.832031 45.6875 45.183594 49.539062 49.042969 C 47.257812 48.957031 44.519531 48.894531 41.386719 48.894531 " fill-opacity="1" fill-rule="nonzero"/><g clip-path="url(#0ca8267967)"><path fill="#ffc04d" d="M 40.5625 8.757812 C 39.523438 8.757812 38.484375 8.808594 37.445312 8.914062 C 36.410156 9.015625 35.382812 9.167969 34.359375 9.371094 C 33.335938 9.574219 32.328125 9.824219 31.332031 10.128906 C 30.335938 10.429688 29.355469 10.78125 28.394531 11.179688 C 27.429688 11.578125 26.492188 12.023438 25.570312 12.515625 C 24.652344 13.003906 23.761719 13.539062 22.894531 14.117188 C 22.027344 14.695312 21.191406 15.316406 20.386719 15.976562 C 19.582031 16.636719 18.8125 17.335938 18.074219 18.074219 C 17.339844 18.808594 16.640625 19.582031 15.980469 20.386719 C 15.316406 21.191406 14.699219 22.027344 14.121094 22.894531 C 13.539062 23.757812 13.007812 24.652344 12.515625 25.570312 C 12.023438 26.488281 11.578125 27.429688 11.179688 28.390625 C 10.78125 29.351562 10.429688 30.332031 10.128906 31.328125 C 9.828125 32.328125 9.574219 33.335938 9.371094 34.355469 C 9.167969 35.378906 9.015625 36.40625 8.914062 37.445312 C 8.808594 38.480469 8.757812 39.519531 8.757812 40.5625 C 8.757812 41.601562 8.808594 42.644531 8.914062 43.679688 C 9.015625 44.714844 9.167969 45.746094 9.371094 46.765625 C 9.574219 47.789062 9.824219 48.796875 10.128906 49.792969 C 10.429688 50.789062 10.78125 51.769531 11.179688 52.734375 C 11.578125 53.695312 12.023438 54.636719 12.515625 55.554688 C 13.003906 56.472656 13.539062 57.363281 14.117188 58.230469 C 14.699219 59.097656 15.316406 59.933594 15.976562 60.738281 C 16.636719 61.542969 17.335938 62.3125 18.074219 63.050781 C 18.808594 63.789062 19.582031 64.484375 20.386719 65.148438 C 21.191406 65.808594 22.027344 66.425781 22.894531 67.007812 C 23.757812 67.585938 24.652344 68.121094 25.570312 68.609375 C 26.488281 69.101562 27.429688 69.546875 28.390625 69.945312 C 29.355469 70.34375 30.332031 70.695312 31.328125 70.996094 C 32.328125 71.300781 33.335938 71.550781 34.359375 71.753906 C 35.378906 71.957031 36.40625 72.109375 37.445312 72.214844 C 38.480469 72.316406 39.519531 72.367188 40.5625 72.367188 C 41.605469 72.367188 42.644531 72.316406 43.679688 72.214844 C 44.714844 72.109375 45.746094 71.957031 46.765625 71.753906 C 47.789062 71.550781 48.796875 71.300781 49.792969 70.996094 C 50.789062 70.695312 51.769531 70.34375 52.734375 69.945312 C 53.695312 69.546875 54.636719 69.101562 55.554688 68.613281 C 56.472656 68.121094 57.367188 67.585938 58.230469 67.007812 C 59.097656 66.429688 59.933594 65.808594 60.738281 65.148438 C 61.542969 64.488281 62.3125 63.789062 63.050781 63.050781 C 63.789062 62.316406 64.484375 61.542969 65.148438 60.738281 C 65.808594 59.933594 66.425781 59.097656 67.007812 58.234375 C 67.585938 57.367188 68.121094 56.472656 68.609375 55.554688 C 69.101562 54.636719 69.546875 53.695312 69.945312 52.734375 C 70.34375 51.773438 70.695312 50.792969 70.996094 49.796875 C 71.300781 48.796875 71.550781 47.789062 71.753906 46.769531 C 71.957031 45.746094 72.109375 44.71875 72.214844 43.679688 C 72.316406 42.644531 72.367188 41.605469 72.367188 40.5625 C 72.367188 39.523438 72.316406 38.484375 72.214844 37.445312 C 72.113281 36.410156 71.957031 35.378906 71.753906 34.359375 C 71.550781 33.335938 71.300781 32.328125 70.996094 31.332031 C 70.695312 30.335938 70.34375 29.355469 69.945312 28.394531 C 69.546875 27.429688 69.101562 26.488281 68.613281 25.570312 C 68.121094 24.652344 67.585938 23.761719 67.007812 22.894531 C 66.429688 22.027344 65.808594 21.191406 65.148438 20.386719 C 64.488281 19.582031 63.789062 18.8125 63.050781 18.074219 C 62.316406 17.339844 61.542969 16.640625 60.738281 15.980469 C 59.933594 15.316406 59.097656 14.699219 58.234375 14.121094 C 57.367188 13.539062 56.472656 13.007812 55.554688 12.515625 C 54.636719 12.023438 53.695312 11.578125 52.734375 11.179688 C 51.773438 10.78125 50.792969 10.429688 49.796875 10.128906 C 48.800781 9.828125 47.789062 9.574219 46.769531 9.371094 C 45.746094 9.167969 44.71875 9.015625 43.679688 8.914062 C 42.644531 8.808594 41.605469 8.757812 40.5625 8.757812 M 58.113281 58.113281 C 57.253906 59.691406 56.203125 61.125 54.957031 62.421875 C 53.710938 63.714844 52.316406 64.820312 50.769531 65.738281 C 49.226562 66.65625 47.589844 67.351562 45.855469 67.828125 C 44.125 68.304688 42.359375 68.542969 40.5625 68.542969 C 38.765625 68.542969 37.003906 68.304688 35.269531 67.828125 C 33.539062 67.351562 31.898438 66.65625 30.355469 65.738281 C 28.8125 64.820312 27.414062 63.714844 26.167969 62.421875 C 24.921875 61.125 23.871094 59.691406 23.011719 58.113281 C 21.433594 57.253906 20 56.203125 18.707031 54.957031 C 17.410156 53.710938 16.304688 52.3125 15.386719 50.769531 C 14.472656 49.226562 13.773438 47.585938 13.296875 45.855469 C 12.824219 44.125 12.585938 42.359375 12.585938 40.5625 C 12.585938 38.765625 12.824219 37.003906 13.296875 35.269531 C 13.773438 33.539062 14.472656 31.898438 15.386719 30.355469 C 16.304688 28.8125 17.410156 27.414062 18.707031 26.167969 C 20 24.921875 21.433594 23.871094 23.011719 23.011719 C 23.871094 21.433594 24.925781 20 26.171875 18.703125 C 27.417969 17.410156 28.8125 16.304688 30.355469 15.386719 C 31.898438 14.46875 33.539062 13.773438 35.269531 13.296875 C 37.003906 12.820312 38.765625 12.585938 40.5625 12.585938 C 42.359375 12.585938 44.125 12.820312 45.855469 13.296875 C 47.589844 13.773438 49.226562 14.46875 50.769531 15.386719 C 52.316406 16.304688 53.710938 17.410156 54.957031 18.703125 C 56.203125 20 57.253906 21.433594 58.113281 23.011719 C 59.691406 23.871094 61.128906 24.921875 62.421875 26.167969 C 63.714844 27.414062 64.820312 28.808594 65.738281 30.355469 C 66.65625 31.898438 67.355469 33.539062 67.828125 35.269531 C 68.304688 37 68.542969 38.765625 68.542969 40.5625 C 68.542969 42.359375 68.304688 44.125 67.828125 45.855469 C 67.355469 47.585938 66.65625 49.226562 65.738281 50.769531 C 64.820312 52.316406 63.714844 53.710938 62.421875 54.957031 C 61.128906 56.203125 59.691406 57.253906 58.113281 58.113281 " fill-opacity="1" fill-rule="nonzero"/></g></svg>