<svg xmlns="http://www.w3.org/2000/svg" xmlns:xlink="http://www.w3.org/1999/xlink" width="108" zoomAndPan="magnify" viewBox="0 0 81 80.999996" height="108" preserveAspectRatio="xMidYMid meet" version="1.0"><path fill="#d81e06" d="M 41.453125 27.855469 C 42.609375 26.421875 43.832031 25.125 45.128906 23.96875 C 46.246094 23.023438 47.515625 22.167969 48.933594 21.398438 C 50.351562 20.628906 51.828125 20.296875 53.371094 20.398438 C 55.539062 20.574219 57.351562 21.089844 58.804688 21.949219 C 60.257812 22.804688 61.410156 23.890625 62.269531 25.203125 C 63.125 26.515625 63.710938 28.003906 64.027344 29.667969 C 64.34375 31.328125 64.449219 33.035156 64.34375 34.785156 C 64.238281 36.535156 63.929688 38.207031 63.421875 39.796875 C 62.917969 41.390625 62.285156 42.878906 61.535156 44.261719 C 60.78125 45.644531 59.949219 46.921875 59.039062 48.09375 C 58.128906 49.265625 57.21875 50.324219 56.308594 51.269531 C 54.910156 52.703125 53.449219 54.042969 51.925781 55.285156 C 50.402344 56.527344 48.953125 57.597656 47.570312 58.488281 C 46.1875 59.382812 44.925781 60.089844 43.789062 60.613281 C 42.652344 61.140625 41.765625 61.402344 41.136719 61.402344 C 40.4375 61.4375 39.546875 61.191406 38.460938 60.667969 C 37.375 60.140625 36.183594 59.433594 34.890625 58.542969 C 33.59375 57.648438 32.230469 56.589844 30.796875 55.363281 C 29.359375 54.140625 27.941406 52.84375 26.542969 51.480469 C 25.632812 50.605469 24.652344 49.589844 23.601562 48.433594 C 22.550781 47.28125 21.5625 46.011719 20.636719 44.628906 C 19.707031 43.246094 18.914062 41.75 18.246094 40.140625 C 17.582031 38.53125 17.214844 36.816406 17.144531 34.996094 C 17.074219 33.175781 17.265625 31.46875 17.722656 29.875 C 18.175781 28.285156 18.859375 26.859375 19.769531 25.597656 C 20.679688 24.335938 21.800781 23.277344 23.128906 22.421875 C 24.460938 21.5625 25.964844 20.960938 27.644531 20.609375 C 28.484375 20.433594 29.324219 20.410156 30.164062 20.53125 C 31.003906 20.652344 31.828125 20.863281 32.632812 21.160156 C 33.4375 21.457031 34.207031 21.835938 34.941406 22.289062 C 35.675781 22.746094 36.378906 23.21875 37.042969 23.707031 C 38.582031 24.863281 40.050781 26.246094 41.453125 27.855469 Z M 41.453125 27.855469 " fill-opacity="1" fill-rule="nonzero"/></svg>