<svg xmlns="http://www.w3.org/2000/svg" xmlns:xlink="http://www.w3.org/1999/xlink" width="108" zoomAndPan="magnify" viewBox="0 0 81 80.999996" height="108" preserveAspectRatio="xMidYMid meet" version="1.0"><defs><clipPath id="6db5c395b3"><path d="M 19 15 L 62 15 L 62 68.25 L 19 68.25 Z M 19 15 " clip-rule="nonzero"/></clipPath></defs><g clip-path="url(#6db5c395b3)"><path fill="#ec242e" d="M 56.796875 26.648438 C 49.539062 28.8125 48.214844 34.636719 48.710938 38.296875 C 43.597656 32.140625 43.761719 25.148438 43.761719 15 C 27.265625 21.324219 31.058594 39.460938 30.5625 44.953125 C 26.4375 41.457031 25.613281 33.304688 25.613281 33.304688 C 21.160156 35.632812 19.015625 41.625 19.015625 46.617188 C 19.015625 47.320312 19.050781 48.019531 19.117188 48.71875 C 19.1875 49.417969 19.289062 50.113281 19.425781 50.800781 C 19.5625 51.492188 19.734375 52.171875 19.9375 52.84375 C 20.140625 53.515625 20.378906 54.175781 20.648438 54.824219 C 20.917969 55.472656 21.214844 56.109375 21.546875 56.726562 C 21.878906 57.347656 22.238281 57.949219 22.628906 58.53125 C 23.019531 59.117188 23.4375 59.679688 23.882812 60.222656 C 24.328125 60.765625 24.800781 61.285156 25.296875 61.78125 C 25.792969 62.28125 26.3125 62.75 26.855469 63.195312 C 27.398438 63.640625 27.960938 64.058594 28.546875 64.449219 C 29.128906 64.839844 29.734375 65.203125 30.351562 65.53125 C 30.972656 65.863281 31.605469 66.164062 32.253906 66.433594 C 32.902344 66.703125 33.5625 66.9375 34.238281 67.140625 C 34.910156 67.34375 35.589844 67.515625 36.277344 67.652344 C 36.96875 67.789062 37.660156 67.894531 38.359375 67.960938 C 39.058594 68.03125 39.761719 68.066406 40.460938 68.066406 C 41.164062 68.066406 41.867188 68.03125 42.566406 67.960938 C 43.265625 67.894531 43.957031 67.789062 44.648438 67.652344 C 45.335938 67.515625 46.015625 67.34375 46.6875 67.140625 C 47.359375 66.9375 48.019531 66.703125 48.671875 66.433594 C 49.320312 66.164062 49.953125 65.863281 50.574219 65.53125 C 51.191406 65.203125 51.792969 64.839844 52.378906 64.449219 C 52.960938 64.058594 53.527344 63.640625 54.070312 63.195312 C 54.613281 62.75 55.132812 62.28125 55.628906 61.78125 C 56.125 61.285156 56.597656 60.765625 57.042969 60.222656 C 57.488281 59.679688 57.90625 59.117188 58.296875 58.53125 C 58.6875 57.949219 59.046875 57.347656 59.378906 56.726562 C 59.710938 56.109375 60.007812 55.472656 60.277344 54.824219 C 60.546875 54.175781 60.78125 53.515625 60.988281 52.84375 C 61.191406 52.171875 61.359375 51.492188 61.5 50.800781 C 61.636719 50.113281 61.738281 49.417969 61.808594 48.71875 C 61.875 48.019531 61.910156 47.320312 61.910156 46.617188 C 61.910156 39.460938 56.796875 36.300781 56.796875 26.648438 Z M 56.796875 26.648438 " fill-opacity="1" fill-rule="nonzero"/></g></svg>