<svg xmlns="http://www.w3.org/2000/svg" xmlns:xlink="http://www.w3.org/1999/xlink" width="108" zoomAndPan="magnify" viewBox="0 0 81 80.999996" height="108" preserveAspectRatio="xMidYMid meet" version="1.0"><defs><clipPath id="86fc945fb8"><path d="M 16 14.289062 L 65 14.289062 L 65 66.789062 L 16 66.789062 Z M 16 14.289062 " clip-rule="nonzero"/></clipPath></defs><g clip-path="url(#86fc945fb8)"><path fill="#d8b594" d="M 24.382812 34.480469 C 23.246094 34.546875 21.578125 34.570312 19.035156 34.570312 C 17.300781 34.570312 16.3125 35.824219 16.3125 37.503906 L 16.308594 64.160156 C 16.308594 65.878906 16.835938 66.785156 18.757812 66.785156 L 24.382812 66.789062 Z M 59.179688 33.25 C 58.425781 33.25 47.472656 33.253906 44.558594 33.25 C 44.023438 33.25 44.226562 32.875 45.214844 30.332031 C 46.058594 28.152344 46.550781 26.640625 46.609375 24.5 C 46.742188 19.851562 44.425781 14.1875 41.023438 14.289062 C 35.144531 14.46875 35.828125 18.3125 34.820312 22.808594 C 33.9375 26.765625 32.5625 31.066406 29.847656 33.246094 C 29.101562 33.554688 28.75 33.804688 28.421875 34.003906 L 28.421875 66.769531 L 54.773438 66.789062 C 55.003906 66.789062 56.433594 66.660156 57.34375 66.09375 C 58.917969 65.105469 59.179688 63.871094 59.179688 63.871094 L 64.765625 39.082031 C 64.753906 37.050781 63.375 33.246094 59.179688 33.246094 Z M 59.179688 33.25 " fill-opacity="1" fill-rule="nonzero"/></g></svg>