<svg xmlns="http://www.w3.org/2000/svg" xmlns:xlink="http://www.w3.org/1999/xlink" width="108" zoomAndPan="magnify" viewBox="0 0 81 80.999996" height="108" preserveAspectRatio="xMidYMid meet" version="1.0"><defs><clipPath id="3a865a3eee"><path d="M 16.5 16.5 L 64.5 16.5 L 64.5 62 L 16.5 62 Z M 16.5 16.5 " clip-rule="nonzero"/></clipPath></defs><g clip-path="url(#3a865a3eee)"><path fill="#e69908" d="M 53.117188 45.375 C 53.660156 47.894531 54.136719 50.171875 54.550781 52.214844 C 54.742188 53.074219 54.917969 53.933594 55.078125 54.792969 C 55.238281 55.65625 55.390625 56.4375 55.53125 57.136719 C 55.675781 57.839844 55.796875 58.4375 55.890625 58.929688 C 55.988281 59.425781 56.050781 59.734375 56.082031 59.863281 C 56.179688 60.5 56.035156 60.921875 55.652344 61.128906 C 55.269531 61.335938 54.839844 61.441406 54.359375 61.441406 C 54.203125 61.441406 53.96875 61.382812 53.667969 61.273438 C 53.363281 61.160156 53.132812 61.074219 52.976562 61.011719 L 40.496094 53.742188 C 38.234375 55.082031 36.179688 56.277344 34.328125 57.328125 C 33.53125 57.773438 32.742188 58.222656 31.960938 58.667969 C 31.183594 59.113281 30.472656 59.527344 29.835938 59.910156 C 29.199219 60.292969 28.648438 60.613281 28.1875 60.867188 C 27.722656 61.121094 27.414062 61.28125 27.253906 61.34375 C 26.933594 61.503906 26.609375 61.558594 26.273438 61.511719 C 25.9375 61.464844 25.636719 61.34375 25.363281 61.152344 C 25.09375 60.960938 24.894531 60.730469 24.765625 60.460938 C 24.640625 60.1875 24.609375 59.910156 24.671875 59.625 C 24.703125 59.496094 24.785156 59.183594 24.910156 58.691406 C 25.039062 58.195312 25.183594 57.609375 25.339844 56.921875 C 25.5 56.238281 25.683594 55.480469 25.890625 54.652344 C 26.097656 53.824219 26.3125 52.976562 26.535156 52.117188 C 27.015625 50.140625 27.554688 47.910156 28.160156 45.425781 C 26.28125 43.796875 24.59375 42.347656 23.09375 41.074219 C 22.457031 40.53125 21.828125 39.996094 21.207031 39.472656 C 20.585938 38.945312 20.027344 38.46875 19.53125 38.039062 C 19.039062 37.609375 18.632812 37.257812 18.3125 36.984375 C 17.996094 36.714844 17.820312 36.5625 17.789062 36.53125 C 17.40625 36.179688 17.078125 35.789062 16.808594 35.359375 C 16.535156 34.929688 16.433594 34.492188 16.496094 34.046875 C 16.558594 33.597656 16.734375 33.25 17.023438 32.992188 C 17.308594 32.738281 17.628906 32.578125 17.980469 32.515625 L 32.75 31.175781 L 38.25 18.363281 C 38.441406 17.855469 38.710938 17.417969 39.0625 17.050781 C 39.414062 16.683594 39.890625 16.5 40.496094 16.5 C 40.816406 16.5 41.09375 16.570312 41.332031 16.714844 C 41.574219 16.859375 41.773438 17.027344 41.929688 17.21875 C 42.089844 17.410156 42.226562 17.597656 42.335938 17.789062 C 42.449219 17.980469 42.535156 18.140625 42.601562 18.269531 L 47.953125 31.082031 L 62.726562 32.46875 C 63.363281 32.628906 63.8125 32.820312 64.066406 33.042969 C 64.320312 33.265625 64.449219 33.617188 64.449219 34.09375 C 64.449219 34.539062 64.3125 34.929688 64.042969 35.265625 C 63.773438 35.597656 63.429688 36.007812 63.015625 36.484375 Z M 53.117188 45.375 " fill-opacity="1" fill-rule="nonzero"/></g></svg>