<svg xmlns="http://www.w3.org/2000/svg" xmlns:xlink="http://www.w3.org/1999/xlink" width="108" zoomAndPan="magnify" viewBox="0 0 81 80.999996" height="108" preserveAspectRatio="xMidYMid meet" version="1.0"><path fill="#68b038" d="M 60.824219 16.324219 C 56.871094 18.796875 50.863281 21.101562 44.507812 23.550781 C 42.230469 24.425781 39.875 25.324219 37.632812 26.238281 C 37.109375 26.449219 36.582031 26.660156 36.042969 26.875 C 29.75 29.363281 22.621094 32.179688 18.808594 41.667969 C 16.339844 47.808594 19.53125 54.570312 20.566406 56.496094 L 20.578125 56.527344 L 20.5625 56.546875 C 17.863281 59.867188 16.246094 62.386719 15.925781 63.027344 C 15.652344 63.566406 15.667969 64.078125 15.964844 64.550781 C 16.542969 65.492188 18.046875 66 19.164062 66 C 20.050781 66 20.609375 64.550781 21.269531 62.875 C 21.90625 61.230469 22.636719 59.359375 23.867188 58.351562 C 26.746094 55.996094 30.863281 56.007812 35.625 56.03125 C 42.945312 56.058594 52.035156 56.089844 59.875 46.878906 C 64.027344 41.996094 64.535156 34.054688 64.46875 29.746094 C 64.375 23.390625 63.023438 18.089844 61.769531 16.640625 C 61.429688 16.253906 61.113281 16.148438 60.824219 16.324219 " fill-opacity="1" fill-rule="nonzero"/></svg>