<svg xmlns="http://www.w3.org/2000/svg" xmlns:xlink="http://www.w3.org/1999/xlink" width="35" height="35" viewBox="0 0 35 35"><defs><clipPath id="clip-path"><rect id="Rectangle_391" data-name="Rectangle 391" width="35" height="35" fill="#c1413d"></rect></clipPath></defs><g id="Group_1021" data-name="Group 1021" transform="translate(-382 -3658.964)"><g id="Group_1014" data-name="Group 1014" transform="translate(354 3631.233)"><g id="Group_804" data-name="Group 804" transform="translate(28 27.731)" clip-path="url(#clip-path)"><path id="Path_1746" data-name="Path 1746" d="M10.68,11.6a7.478,7.478,0,0,1,2.919-.957h.1a.429.429,0,0,0,.172-.025,3.457,3.457,0,0,0,.54-.025l1.545-.073q.687-.024,1.767-.024a10.266,10.266,0,0,1,1.3.049,13.131,13.131,0,0,1,3.827.932q.295.1.811-.662a2.424,2.424,0,0,0,.515-1.2,2.8,2.8,0,0,0-.908-1.791A4.5,4.5,0,0,0,21.6,6.645l.025.172V6.99a.783.783,0,0,1-.1.393c-.18.277-.54.393-1.08.342q-1.473-.1-3.287-.1h-.982q-2.7.026-5.1.172-.81.024-.982-.466a3.753,3.753,0,0,0-1.177,1.03q-.491.687-.393.908.932,2.552,2.159,2.331" transform="translate(1.244 1.317)" fill="#c1413d"></path><path id="Path_1747" data-name="Path 1747" d="M24.533,11.653l.049.344a1.234,1.234,0,0,1-.122.393.945.945,0,0,1-.858.342,1.634,1.634,0,0,1-.32-.024q-2.281-.221-5.274-.22-1.4,0-2.135.024-4.293.074-7.066.393l-.245.024a.829.829,0,0,1-.835-.49,3.8,3.8,0,0,0-1.3,1.055q-.541.687-.443.957a4.849,4.849,0,0,0,1.227,1.791,1.682,1.682,0,0,0,1.424.637,15.308,15.308,0,0,1,3.42-1.147,17.772,17.772,0,0,1-3.716,4.78s-.465,1.9.428,2.7c.61.549.572-.059,1.934-.12s4.323-.108,6.141-.108c2.073,0,4.566.112,5.909.18,1.778.091,1.562.523,2.169.156,1.182-.71.476-2.807.476-2.807a18.92,18.92,0,0,1-3.887-4.979,12.028,12.028,0,0,1,2.459.487l.809.295.417.172.467.171q.295.1.784-.711a6.8,6.8,0,0,0,.344-.662l.147-.467a2.837,2.837,0,0,0-.76-1.937,3.614,3.614,0,0,0-1.644-1.227m-7.625,8.533c-1.793,0-3.355.039-4.644.089a15.974,15.974,0,0,0,3.512-4.947c.348-.011.708-.019,1.09-.019.35,0,.668,0,.966.006a15.953,15.953,0,0,0,3.51,4.952c-1.24-.047-2.73-.081-4.434-.081" transform="translate(0.885 2.026)" fill="#c1413d"></path><path id="Path_1748" data-name="Path 1748" d="M17.3,0a17.3,17.3,0,1,0,17.3,17.3A17.3,17.3,0,0,0,17.3,0m9.549,26.853a10.871,10.871,0,0,1-19.1,0,10.873,10.873,0,0,1,0-19.1,10.873,10.873,0,0,1,19.1,0,10.871,10.871,0,0,1,0,19.1" transform="translate(0.04 0.376)" fill="#c1413d"></path></g></g></g></svg>