<?xml version="1.0" encoding="UTF-8"?><svg xmlns="http://www.w3.org/2000/svg" viewBox="0 0 598.63 394.9"><defs><style>.d{fill:#feeee8;}.e{fill:none;stroke:#a53b32;stroke-linecap:round;stroke-miterlimit:10;stroke-width:2.83px;}</style></defs><g id="a"/><g id="b"><g id="c"><g><path class="d" d="M362.87,111.18c-4.66,2.93-10.53,5.27-17.7,6.63-35.11,6.69-46.7-11.97-49.8-22.73-3.1-10.78-3.52-31.98,24.41-33.11,0,0,5.62-29.39,26.71-30.8,21.08-1.42,34.67,.93,49.04-10.15,14.36-11.08,29.72-25.6,58.12-16.99,28.4,8.61,35.67,26.77,35.67,26.77,0,0,22.73-25.25,49.71-12.91,26.96,12.33,29.49,36.92,29.49,36.92,0,0,25.53-1.19,28.36,15.22,2.84,16.41-13.44,26.47-27.28,28.34-13.86,1.89-34.7-4.6-34.7-4.6,0,0-4.64,20.07-48.57,17.17-43.95-2.9-54.83-5.47-61.5,.09-6.66,5.55-10.17,16.43,12.67,22.09,22.85,5.64,34.4,8.03,29.4,21.16-5,13.13-37.44,7.52-49.99,8.56-12.57,1.06-19.75,3.72-18.13,12.49,1.64,8.76-5.06,18.87-27.79,12.77-22.74-6.09-51.58-15.6-72.86-13.35-21.28,2.27-25.63,13.72-15.81,25.7,9.82,11.98,18.94,15.59,17.19,32.63-1.75,17.06-10.89,30.51-38.22,26.79,0,0-6.26,25.96-44.47,20.01-12.15-1.89-20.12-6.31-25.34-11.56l-.25,.25c-15.83,13.81-48.19,13.53-64.89,12.79-16.7-.76-41.17-1.74-48,7.06-6.82,8.8,4.02,12.13,13.51,13.36,9.49,1.23,35.78,1.97,54.19,7.25,18.42,5.27,11.4,16.99,2.21,21.81-9.19,4.81-43.33,16.4-61.54,19.67-18.2,3.25-39.19,13.77-41.71,24.99-2.54,11.2,15.73,17.44,15.73,17.44,0,0-60.13,5.64-59.32-19.12,.82-24.75,68.33-33.65,80.27-34.9,11.96-1.24,38.82-3.81,38.06-13.49-.76-9.68-23.29-13.74-43.81-18.44-20.53-4.71-30.14-12.6-23.59-22.39,6.55-9.78,42.9-13.11,49.29-20.34,6.38-7.23-.85-15.31-13.28-19.51-12.43-4.22-24.65,0-36.11-7.75-11.47-7.75-1.63-23.54-1.63-23.54-7.96-3.51-15.71-9.85-18.99-20.47-3.29-10.61-.29-35.19,28.31-39.12,28.61-3.93,45.39,15.42,45.39,15.42,34.11-15.1,60.6,10.02,60.6,10.02,0,0-.01-14.6,21.79-19,21.81-4.41,50.41,1.99,60.89,1.76,10.47-.23,6.14-5.8,2.59-11.87-3.54-6.08-1.97-12.26,4.94-16.53,6.91-4.27,15-7.33,27.79-6.31,12.8,1.03,47.67,6.95,56.41,9.08,8.74,2.13,33.14-.04,33.75-10.99s-10.99-13.94-10.99-13.94l-.22-.33Z"/><g><path class="e" d="M409.84,103.14s-18.11-2.93-19.81-24.76c-1.7-21.84,18.86-24.55,18.86-24.55,0,0,2.15-29.46,37.68-29.79,35.53-.34,43.68,34.67,43.68,34.67,0,0,7.56-18.38,26.32-22.17,18.75-3.8,39.34,3.55,40.92,30.9,0,0,18.42-4.2,20.38,8.56,1.94,12.76-12.04,16.44-22.89,13.88"/><path class="e" d="M445.91,79.06s16.89,6.52,21.49-10.5c4.59-17.03-14.07-29.11-33.69-15.27-19.62,13.84-8.06,50.14,34.17,46.08"/><path class="e" d="M338.57,101.67s-6.66,11.1-20.94,4.24c-14.28-6.85-6.89-46.7,22.85-30.43,0,0,9.59-14.64,26.7-4.44,11.09,6.61,13.3,21.46,3.95,32.94-2.13,2.63-4.87,5.07-8.25,7.2-4.66,2.93-10.53,5.27-17.7,6.63-35.11,6.69-46.7-11.97-49.8-22.73-3.1-10.78-3.52-31.98,24.41-33.11,0,0,5.62-29.39,26.71-30.8,21.08-1.42,34.67,.93,49.04-10.15,14.36-11.08,29.72-25.6,58.12-16.99,28.4,8.61,35.67,26.77,35.67,26.77,0,0,22.73-25.25,49.71-12.91,26.96,12.33,29.49,36.92,29.49,36.92,0,0,25.53-1.19,28.36,15.22,2.84,16.41-13.44,26.47-27.28,28.34-13.86,1.89-34.7-4.6-34.7-4.6,0,0-4.64,20.07-48.57,17.17-43.95-2.9-54.83-5.47-61.5,.09-6.66,5.55-10.17,16.43,12.67,22.09,22.85,5.64,34.4,8.03,29.4,21.16-5,13.13-37.44,7.52-49.99,8.56-12.57,1.06-19.75,3.72-18.13,12.49,1.64,8.76-5.06,18.87-27.79,12.77-22.74-6.09-51.58-15.6-72.86-13.35-21.28,2.27-25.63,13.72-15.81,25.7,9.82,11.98,18.94,15.59,17.19,32.63-1.75,17.06-10.89,30.51-38.22,26.79,0,0-6.26,25.96-44.47,20.01-12.15-1.89-20.12-6.31-25.34-11.56-9.56-9.67-9.74-22.18-9.11-27.08,1.32-10.26,16.75-41.59,47.44-24.13,0,0,7.38-39.26,42.2-15.42"/><path class="e" d="M261.29,259.87s-16.3,1.41-19.07-16.65c-2.78-18.05,10.88-26.86,22-26.14,11.12,.7,16.28,11.24,14.76,19.62-1.52,8.38-21.15,10.81-19.06-3.8"/><path class="e" d="M363.09,111.51s11.6,2.99,10.99,13.94-25.01,13.12-33.75,10.99c-8.74-2.13-43.61-8.05-56.41-9.08-12.79-1.02-20.88,2.04-27.79,6.31-6.91,4.27-8.48,10.45-4.94,16.53,3.55,6.07,7.88,11.64-2.59,11.87-10.48,.23-39.08-6.16-60.89-1.76-21.8,4.4-21.79,19-21.79,19,0,0-26.49-25.12-60.6-10.02,0,0-16.78-19.35-45.39-15.42-28.6,3.93-31.6,28.51-28.31,39.12,3.28,10.62,11.03,16.96,18.99,20.47,0,0-9.85,15.78,1.63,23.54,11.46,7.76,23.68,3.54,36.11,7.75,12.43,4.2,19.67,12.28,13.28,19.51-6.38,7.23-42.74,10.55-49.29,20.34-6.55,9.78,3.06,17.68,23.59,22.39,20.51,4.69,43.05,8.76,43.81,18.44,.76,9.68-26.11,12.25-38.06,13.49-11.94,1.25-79.45,10.15-80.27,34.9-.82,24.76,59.32,19.12,59.32,19.12,0,0-18.27-6.23-15.73-17.44,2.52-11.22,23.52-21.74,41.71-24.99,18.21-3.26,52.35-14.86,61.54-19.67,9.19-4.82,16.21-16.54-2.21-21.81-18.41-5.28-44.69-6.02-54.19-7.25-9.49-1.23-20.33-4.56-13.51-13.36,6.83-8.8,31.3-7.82,48-7.06,16.7,.75,49.06,1.02,64.89-12.79"/><path class="e" d="M371.12,103.98s24.77,12.38,20.2,31.96c-4.58,19.56-30.94,19.77-44.56,15.15-13.6-4.62-51.7-10.66-70.66-7-18.98,3.64-9.31,12.09-1.18,16.28,8.12,4.19,10.9,15.4-24.79,14.86-35.67-.53-44.69,1.3-53.43,4.04-8.74,2.73-11.12,9.9-12.6,15.13-1.49,5.23-11.3,6.68-22.69-1.66-11.38-8.32-39.9-17.88-57.77-1.47,0,0-22.66-43.79-62.03-17.95"/></g></g></g></g></svg>