<svg xmlns="http://www.w3.org/2000/svg" width="694" height="666" viewBox="0 0 694 666" fill="none"><path d="M665.775 541.99C671.678 538.299 676.844 536.454 681.271 536.454C689.757 536.454 694 543.835 694 558.598C694 568.564 688.281 582.219 676.844 599.566C665.775 616.913 651.939 631.86 635.337 644.409C617.996 658.065 599.179 664.893 578.887 664.893C526.127 664.893 468.57 643.486 406.217 600.673C347.184 644.224 278.006 666 198.681 666C161.048 666 127.104 658.803 96.8501 644.409C66.9649 630.384 43.3519 610.269 26.0112 584.065C8.67039 557.86 0 527.227 0 492.165C0 461.162 6.2722 433.297 18.8166 408.569C31.7299 383.471 49.4397 361.696 71.9458 343.242C92.9761 325.895 118.434 308.733 148.319 291.756C127.289 245.621 116.774 207.975 116.774 178.818C116.774 135.267 125.444 99.8354 142.785 72.5237C160.125 44.8429 182.078 25.4663 208.643 14.394C232.994 4.798 254.946 0 274.501 0C294.055 0 313.794 4.61347 333.718 13.8404C354.01 22.6983 370.613 34.8778 383.526 50.3791C396.809 66.6185 403.45 84.8878 403.45 105.187C403.45 135.082 396.993 161.471 384.08 184.354C371.166 206.868 353.826 225.875 332.057 241.377C311.027 256.14 284.831 271.641 253.47 287.88C277.083 326.264 305.677 364.095 339.252 401.372C373.196 438.648 408.246 470.943 444.404 498.254C465.434 467.252 475.949 435.696 475.949 403.586C475.949 384.763 472.259 366.494 464.88 348.778C455.657 349.147 447.355 350.254 439.976 352.1C432.597 353.576 422.82 356.344 410.644 360.404C401.789 364.095 395.148 365.94 390.721 365.94C384.449 365.94 379.468 364.464 375.778 361.511C372.089 358.19 370.244 354.13 370.244 349.332C370.244 342.319 375.04 333.092 384.633 321.651C394.595 310.209 406.586 300.429 420.606 292.309C435.364 283.82 449.938 279.576 464.327 279.576C474.289 279.576 495.872 281.237 529.078 284.559C567.449 288.249 592.907 290.095 605.451 290.095C612.093 290.095 618.734 289.172 625.375 287.327C632.385 285.481 641.793 282.344 653.6 277.915C661.348 274.963 666.329 273.486 668.542 273.486C677.028 273.486 681.271 279.576 681.271 291.756C681.271 300.244 677.766 310.209 670.756 321.651C663.746 333.092 654.522 342.688 643.085 350.439C630.54 358.928 616.704 363.172 601.577 363.172C585.712 363.172 569.847 361.88 553.982 359.297C550.662 383.656 542.729 410.598 530.185 440.125C518.01 469.651 502.145 497.701 482.59 524.274C528.709 552.693 568.741 566.903 602.684 566.903C613.384 566.903 622.608 565.611 630.356 563.027C638.104 560.075 645.483 556.015 652.493 550.848L665.775 541.99ZM202.002 147.262C202.002 174.204 211.41 206.868 230.226 245.252C260.481 226.429 282.802 207.791 297.191 189.337C311.949 170.883 319.329 149.661 319.329 125.671C319.329 104.264 313.979 88.7631 303.279 79.1671C292.579 69.5711 278.928 64.7731 262.325 64.7731C252.733 64.7731 243.324 67.5411 234.1 73.0773C225.246 78.2444 217.867 86.5486 211.963 97.99C205.322 110.539 202.002 126.963 202.002 147.262ZM274.501 600.673C286.676 600.673 300.696 598.09 316.561 592.923C332.795 587.387 349.029 579.636 365.263 569.671C327.261 538.668 291.104 502.683 256.791 461.716C222.847 420.379 194.069 378.304 170.456 335.491C150.533 350.254 135.406 366.125 125.075 383.102C114.744 400.08 109.579 419.641 109.579 441.786C109.579 469.097 117.511 495.117 133.376 519.845C149.241 544.204 170.272 563.766 196.467 578.529C221.556 593.292 247.567 600.673 274.501 600.673Z" fill="#E9E2DC"></path></svg>